<svg width="123" height="172" viewBox="0 0 123 172" fill="none" xmlns="http://www.w3.org/2000/svg">
<path d="M72.379 1.14605C71.0755 2.05068 69.9421 5.83882 69.9421 9.28771C69.9421 10.5881 69.8287 11.6058 69.6587 11.6058C69.4887 11.6058 67.8452 10.5881 65.975 9.28771C61.8379 6.46075 59.401 5.95189 57.4742 7.53499C56.284 8.49616 56.0574 9.17463 56.0574 11.7754V14.9416L53.3938 14.8851C46.9331 14.7155 46.1964 20.1998 51.4669 28.5676L53.3938 31.6207L46.8198 35.6916C33.5018 43.8898 30.3848 48.2998 28.9113 61.3604L28.2313 67.2971L24.8876 67.2405C23.0174 67.184 17.1801 66.7317 11.853 66.2793C3.80548 65.5443 2.10531 65.4878 1.42525 66.1097C1.02854 66.562 0.858522 67.3536 1.02854 68.0321C1.53859 69.5586 6.41241 73.9687 11.3996 77.4741C13.4964 79.0007 17.8602 82.1104 21.0905 84.485L26.8711 88.7255V93.079C26.8711 108.005 31.7449 127.285 37.0721 133.335C40.8125 137.575 44.6095 138.593 59.231 139.385C59.571 139.385 59.2877 156.46 58.8343 158.438C58.6643 159.343 58.1542 159.739 57.3041 159.739C55.5473 159.739 49.2567 162.792 47.5565 164.545C46.3664 165.675 46.1964 166.128 46.7064 167.089C47.0465 167.711 47.8965 168.22 48.5766 168.22C50.1068 168.22 54.4705 166.241 56.0007 164.94C57.0208 164.036 57.0775 164.036 56.6241 165.11C56.3407 165.732 56.114 167.145 56.114 168.22C56.0574 170.029 56.2274 170.199 57.8709 170.368C59.3444 170.538 59.9111 170.199 61.4412 168.276L63.3114 166.015L66.4851 168.22C69.8287 170.594 72.0389 171.103 72.549 169.633C73.4558 167.259 70.3955 162.905 66.6551 161.209L64.4449 160.191L64.1048 153.915C63.8781 150.41 63.7081 145.717 63.7081 143.512C63.7081 139.724 63.8215 139.385 65.0116 139.102C67.6185 138.537 82.3533 135.992 83.1467 135.992C83.7701 135.992 84.2235 137.519 84.9036 142.325C86.6037 153.633 87.3971 160.587 87.0004 160.757C86.7737 160.813 85.3569 161.718 83.8268 162.735C81.6732 164.092 80.9365 164.94 80.8232 166.184C80.5965 168.05 81.5599 168.898 83.3167 168.446C84.2802 168.22 84.5635 168.446 84.8469 169.803C85.5836 173.365 88.814 172.404 91.2509 167.937L92.271 166.071L94.5379 167.937C98.1649 170.821 99.185 171.216 100.205 170.142C101.452 168.898 101.339 168.333 99.5817 166.75C94.1412 162 93.8011 161.605 93.5178 159.4C93.3477 158.212 92.271 152.163 91.1375 146C90.0607 139.78 89.2673 134.635 89.3807 134.466C89.5507 134.353 91.1375 133.844 93.0077 133.392C100.828 131.356 108.989 128.529 111.823 126.833C117.207 123.554 120.21 117.674 121.797 107.157C124.234 91.2697 120.664 61.3604 113.75 40.1582C110.973 31.6207 108.989 28.9069 103.775 26.2495C99.1283 23.8183 96.8047 23.2529 90.3441 22.9702L83.8835 22.631L83.4868 20.6521C83.2601 19.5779 82.8067 16.5247 82.41 13.9239C80.9365 3.12493 76.9128 -2.02015 72.379 1.14605ZM49.4267 57.0069C49.7101 59.2685 49.2 60.2862 48.1232 59.8339C46.8764 59.3816 46.1397 57.3461 46.8198 56.1023C47.6132 54.5757 49.2 55.1411 49.4267 57.0069ZM38.8856 58.8162C39.339 59.7773 39.339 60.4558 38.9423 60.8516C38.0922 61.6997 36.5054 60.795 36.5054 59.4381C36.5054 57.0069 37.9222 56.6677 38.8856 58.8162ZM88.814 76.0606C97.5415 81.6015 98.3916 95.7363 90.4575 103.935C87.7939 106.705 84.4502 108.627 81.5599 109.08C77.3095 109.702 76.4594 107.157 80.5398 106.083C85.4703 104.726 89.8907 100.655 92.1009 95.284C93.2911 92.4005 93.0644 85.955 91.6476 82.8454C90.3441 79.9619 87.4538 76.9653 85.1303 76.1172C84.2235 75.778 83.5434 75.2691 83.5434 74.9299C83.5434 73.7991 86.207 74.3645 88.814 76.0606Z" fill="#0D3980"/>
</svg>
