<svg width="240" height="132" viewBox="0 0 240 132" fill="none" xmlns="http://www.w3.org/2000/svg">
<path d="M39.3682 13.0978C39.5242 12.8893 39.646 12.6572 39.7288 12.4103C40.0894 10.455 40.3656 8.46578 40.7769 6.53859C41.0407 5.5398 41.374 4.56068 41.7743 3.60837C41.8883 3.34191 42.0402 3.09329 42.2251 2.87017C42.3434 2.67024 42.5248 2.51528 42.7408 2.42964C42.9567 2.34399 43.195 2.33252 43.4182 2.39702C43.6414 2.46152 43.8368 2.59835 43.9737 2.78599C44.1107 2.97363 44.1815 3.20146 44.1749 3.43368C44.2299 4.38587 44.1883 5.34119 44.0509 6.28502C43.555 8.75881 42.9239 11.2101 42.3604 13.6726C42.2705 13.9982 42.3046 14.3456 42.4562 14.6474C42.552 14.3488 42.659 14.0558 42.7379 13.7571C43.2338 11.875 43.6339 9.96471 44.2368 8.12204C44.758 6.63998 45.3812 5.19583 46.102 3.79996C46.6656 2.67295 47.3305 2.34048 48.018 2.60533C48.7054 2.87017 48.8745 3.52948 48.5815 4.68466C48.2265 6.17232 47.8433 7.65997 47.3699 9.11381C46.9357 10.635 46.6915 12.2041 46.643 13.7853C47.0882 13.7458 47.4376 13.7346 47.77 13.6782C54.0233 12.596 60.3441 11.9483 66.6869 11.7397C67.3518 11.7397 68.0168 11.7116 68.6761 11.7397C69.3504 11.7299 70.0076 11.9525 70.5371 12.3702C71.0667 12.7879 71.4363 13.3751 71.5838 14.0332C71.8543 15.2032 71.9961 16.3994 72.0064 17.6002C72.1473 25.309 72.2318 33.0177 72.3501 40.7321C72.3839 42.9298 72.4516 45.1274 72.5135 47.3251C72.5135 47.6012 72.5643 47.8886 72.5924 48.1591C73.7983 46.925 74.9028 45.6628 76.1538 44.5696C77.449 43.46 78.9971 42.686 80.6618 42.3155C82.3129 41.9324 83.9809 41.645 85.7785 41.29C85.739 40.5743 85.7108 39.8023 85.6545 39.0359C85.4967 36.7143 85.2882 34.3927 85.7559 32.0936C85.9015 31.2812 86.1896 30.5009 86.6068 29.7888C87.5873 28.211 89.4243 28.2279 90.5119 29.7494C91.2219 30.7637 91.4022 31.964 91.6389 33.1304C91.7122 33.5192 91.7798 33.9024 91.8925 34.5223C92.3038 34.0827 92.5405 33.8179 92.7941 33.5699C93.557 32.7542 94.366 31.9828 95.2172 31.2596C97.0767 29.8339 99.0772 30.7299 99.3646 33.0628C99.3988 33.6728 99.3988 34.2842 99.3646 34.8942C99.8097 34.6913 100.165 34.511 100.537 34.3307C100.895 34.1613 101.288 34.0756 101.685 34.0801C102.082 34.0846 102.472 34.1791 102.827 34.3566C103.182 34.534 103.492 34.7897 103.734 35.1045C103.975 35.4192 104.142 35.7847 104.222 36.1733C104.452 37.1496 104.383 38.1724 104.025 39.1092C103.709 40.1291 103.258 41.1153 102.858 42.1183C102.723 42.4508 102.565 42.7776 102.379 43.1833C102.847 43.3355 103.241 43.4369 103.613 43.5891C105.958 44.5245 108.364 45.3416 110.629 46.4517C112.211 47.1993 113.629 48.2538 114.801 49.5539C115.972 50.854 116.874 52.3738 117.453 54.0252C117.972 55.4621 118.36 56.9498 118.806 58.4149C118.924 58.8037 119.02 59.2038 119.161 59.7391C120.575 59.3559 121.922 59.0066 123.263 58.6121C124.215 58.3416 125.156 58.0035 126.114 57.7443C128.109 57.1808 130.115 56.7018 132.11 56.1609C132.341 56.0607 132.6 56.0478 132.839 56.1245C133.079 56.2012 133.282 56.3623 133.412 56.5779C133.522 56.8001 133.565 57.0499 133.535 57.2964C133.505 57.5428 133.403 57.775 133.243 57.9641C131.49 60.9225 128.954 63.1878 126.593 65.6165C125.179 67.076 123.826 68.5862 122.418 70.0513C122.169 70.2942 121.996 70.6033 121.918 70.942C121.84 71.2806 121.861 71.6345 121.978 71.9616C123.567 78.5264 123.392 85.1138 122.091 91.6842C122.012 92.09 121.899 92.4957 121.781 92.8902C121.42 94.2661 120.712 95.5265 119.726 96.5514C118.739 97.5763 117.507 98.3315 116.146 98.745C114.455 99.3085 112.697 99.6128 110.967 100.03C110.528 100.137 110.077 100.204 109.496 100.317C110.285 103.901 111.057 107.429 111.835 110.95C114.173 110.573 116.078 111.548 118.033 112.309C118.184 112.379 118.322 112.472 118.445 112.585C118.687 112.715 118.876 112.926 118.979 113.181C119.082 113.437 119.093 113.72 119.008 113.982C118.931 114.225 118.769 114.432 118.551 114.565C118.334 114.698 118.077 114.75 117.825 114.709C116.974 114.584 116.134 114.396 115.312 114.146C114.63 113.893 113.963 113.606 113.311 113.283L113.182 113.492C113.458 113.774 113.745 114.055 114.004 114.343C114.253 114.597 114.405 114.929 114.435 115.283C114.465 115.636 114.37 115.99 114.168 116.281C113.926 116.575 113.58 116.763 113.203 116.806C112.826 116.849 112.446 116.744 112.145 116.512C111.444 115.984 110.77 115.42 110.128 114.822C109.62 115.301 109.113 115.763 108.634 116.259C108.285 116.614 107.992 117.019 107.659 117.386C107.051 118.045 106.346 118.208 105.789 117.842C105.231 117.476 105.135 116.873 105.428 116.061C106.053 114.212 107.384 112.685 109.13 111.813C108.567 108.139 107.947 104.436 107.366 100.836H96.4343C96.4343 105.411 96.7893 109.897 96.9978 114.36C97.9107 114.664 98.7954 114.889 99.6181 115.256C100.183 115.511 100.69 115.877 101.111 116.332C101.228 116.492 101.306 116.678 101.337 116.874C101.368 117.07 101.353 117.27 101.292 117.459C101.174 117.615 101.026 117.745 100.857 117.842C100.687 117.939 100.5 118 100.306 118.022C99.8291 118.024 99.3547 117.958 98.8969 117.825C99.0096 118.107 99.1166 118.316 99.1786 118.535C99.2844 118.799 99.2999 119.09 99.2228 119.363C99.1458 119.636 98.9804 119.876 98.7525 120.045C98.5247 120.215 98.2472 120.304 97.9634 120.299C97.6796 120.294 97.4055 120.195 97.1838 120.017C96.6255 119.528 96.1021 119.001 95.6173 118.439C95.4031 118.203 95.2341 117.927 94.958 117.549C94.3944 118.254 93.8591 118.89 93.3238 119.505C93.0375 119.858 92.7207 120.186 92.3771 120.485C92.1951 120.662 91.9536 120.764 91.7001 120.771C91.4466 120.778 91.1997 120.69 91.0078 120.524C90.8039 120.371 90.6677 120.144 90.6277 119.891C90.5878 119.639 90.6473 119.381 90.7936 119.172C91.0663 118.659 91.4268 118.197 91.8587 117.808C93.3351 116.625 94.1127 115.228 93.5041 113.3C93.5304 109.239 93.5605 105.178 93.5943 101.117C93.5844 100.94 93.5656 100.763 93.5379 100.588C92.1686 100.497 90.7767 100.447 89.3849 100.306C87.2887 100.092 85.1943 99.84 83.1018 99.5508C82.4503 99.4319 81.8136 99.243 81.2028 98.9873C77.9063 97.7476 75.6804 95.471 74.8465 92.0393C74.2829 89.7852 73.9448 87.4861 73.5898 85.1983C73.263 83.0344 73.0263 80.848 72.5474 78.6616C72.5474 79.1463 72.5135 79.6365 72.5135 80.1267C72.5135 83.8966 72.5643 87.6721 72.5135 91.4476C72.4797 93.5551 72.2881 95.6626 72.1247 97.7701C72.0637 98.3494 71.9254 98.918 71.7134 99.4606C70.4398 102.971 68.028 105.096 64.2469 105.513C62.145 105.738 60.0375 105.896 57.9357 106.076L56.9495 106.155C56.8594 106.944 56.7185 107.71 56.6903 108.477C56.572 111.503 56.5156 114.529 56.3747 117.555C56.3213 118.028 56.4261 118.506 56.6728 118.914C56.9195 119.322 57.2942 119.636 57.7384 119.809C58.6379 120.316 59.5037 120.881 60.3306 121.499C60.572 121.657 60.7666 121.877 60.8941 122.136C61.018 122.452 61.1533 122.942 61.0011 123.15C60.8671 123.292 60.7066 123.405 60.5287 123.485C60.3508 123.564 60.159 123.607 59.9643 123.612C59.5342 123.56 59.1155 123.439 58.7246 123.252C58.6626 123.449 58.6062 123.641 58.5442 123.815C58.4854 124.081 58.3453 124.322 58.1433 124.505C57.9414 124.688 57.6877 124.803 57.4172 124.835C57.125 124.874 56.8281 124.818 56.5697 124.676C56.3113 124.534 56.1048 124.314 55.9803 124.046C55.6366 123.393 55.383 122.683 55.0843 121.99C54.2334 121.685 53.7206 122.153 53.2867 122.812C53.1274 123.058 52.9381 123.284 52.7232 123.483C52.5417 123.672 52.2976 123.789 52.0364 123.811C51.7753 123.834 51.5148 123.761 51.3033 123.606C51.0919 123.451 50.9439 123.225 50.8869 122.969C50.8298 122.713 50.8677 122.445 50.9933 122.215C51.1155 121.951 51.2749 121.707 51.4666 121.488C51.9748 120.78 52.5402 120.115 53.1571 119.499C53.9911 118.766 54.1151 117.915 54.1602 116.867C54.3292 113.357 54.6279 109.852 54.8927 106.161C49.3873 106.025 43.7522 105.901 37.9876 105.992C38.2073 109.936 38.4215 113.717 38.6412 117.622C40.5958 117.779 42.5122 118.251 44.3157 119.02C45.0527 119.293 45.759 119.642 46.4232 120.062C46.7133 120.193 46.946 120.424 47.0777 120.713C47.2094 121.003 47.2312 121.33 47.1389 121.635C47.0289 121.931 46.8115 122.176 46.5297 122.32C46.248 122.464 45.9223 122.497 45.6174 122.412C44.7335 122.257 43.8645 122.027 43.0197 121.725C42.4055 121.511 41.8307 121.161 40.9403 120.772C41.2672 121.336 41.4588 121.606 41.6053 121.899C41.7555 122.152 41.8151 122.448 41.7741 122.739C41.7331 123.03 41.5941 123.299 41.3799 123.5C41.1562 123.691 40.8714 123.797 40.5769 123.797C40.2823 123.797 39.9975 123.691 39.7739 123.5C39.302 123.05 38.8789 122.551 38.5116 122.012C38.0721 121.42 37.6889 120.784 37.2156 120.068C36.1787 120.913 35.2658 121.674 34.3417 122.418C33.9563 122.733 33.5496 123.021 33.1245 123.28C32.9174 123.435 32.6583 123.503 32.4017 123.47C32.1452 123.438 31.9114 123.307 31.7496 123.105C31.5743 122.922 31.47 122.683 31.4556 122.43C31.4411 122.176 31.5174 121.927 31.6707 121.725C31.9292 121.35 32.2362 121.011 32.5836 120.716C33.5021 119.938 34.4319 119.172 35.4011 118.462C35.6215 118.317 35.7977 118.114 35.91 117.876C36.0224 117.637 36.0666 117.372 36.0378 117.11C35.9477 114.495 35.9082 111.886 35.8632 109.271C35.8632 108.279 35.8632 107.288 35.8632 106.189C35.6378 106.189 35.2997 106.116 35.0066 106.104C33.5979 106.052 32.1891 106.007 30.7803 105.969C30.492 105.949 30.2022 105.966 29.9182 106.02C26.4977 106.792 22.9983 106.713 19.5271 106.905C17.4816 107.017 16.2194 105.806 16.1461 103.749C16.1306 102.382 16.2192 101.017 16.411 99.6635C17.0815 93.9833 17.7859 88.3088 18.4734 82.6287C19.0369 78.0643 19.4539 73.4774 20.1639 68.9355C21.2909 61.8185 22.232 54.6619 23.8323 47.6294C23.9212 47.272 23.9345 46.8999 23.8714 46.537C23.8083 46.1741 23.6703 45.8284 23.466 45.5219C21.6591 42.4564 19.8746 39.3703 18.1127 36.2635C17.5492 35.221 16.9857 34.1504 16.4504 33.0684C16.2311 32.6225 16.0901 32.1421 16.0334 31.6484C15.9812 31.4115 15.9903 31.1652 16.0599 30.9328C16.1294 30.7004 16.2571 30.4896 16.4309 30.3203C16.6047 30.151 16.8188 30.0289 17.0529 29.9655C17.2871 29.9021 17.5336 29.8995 17.769 29.9579C18.2186 30.0236 18.658 30.1467 19.0763 30.3242C21.0317 31.1412 22.9702 31.9752 24.9142 32.8036L26.2723 33.3671C26.447 32.2401 26.554 31.2145 26.7738 30.2115C27.3373 27.7433 27.867 25.2808 28.4981 22.8352C28.8096 21.5921 29.3696 20.4249 30.1444 19.4042C30.9191 18.3834 31.8927 17.5301 33.0062 16.8958C33.0259 16.5862 33.0259 16.2757 33.0062 15.966C32.6305 13.1372 32.2548 10.3066 31.8792 7.47401C31.7101 6.24557 31.4791 5.01713 31.3495 3.78305C31.2708 3.17096 31.309 2.54949 31.4622 1.95166C31.5421 1.74931 31.6615 1.56489 31.8134 1.40913C31.9652 1.25337 32.1466 1.12939 32.3469 1.04442C32.5711 0.971064 32.8152 0.989093 33.0262 1.09459C33.2372 1.20009 33.3981 1.38454 33.4739 1.60792C33.827 2.24394 34.0816 2.92982 34.229 3.64218C34.5446 5.85675 34.7587 8.0826 35.0123 10.3084C35.1926 11.9595 35.3616 13.6049 35.5758 15.2504C35.6265 15.6786 35.6378 16.2478 36.545 15.9379C36.5844 14.4051 36.6971 12.8048 36.6464 11.2101C36.4936 8.9743 36.6128 6.72826 37.0014 4.52125C37.1761 3.71543 37.4635 2.93216 37.7002 2.13762C37.7325 2.01739 37.7758 1.90043 37.8298 1.78824C38.0665 1.32054 38.3933 0.926082 38.9568 1.06696C39.5203 1.20783 39.5598 1.68681 39.5598 2.15452C39.5598 3.35479 39.5598 4.56069 39.5598 5.76096C39.5034 8.20093 39.4301 10.6465 39.3682 13.0865V14.1797H39.4583L39.3682 13.0978ZM57.4003 67.0365C57.4003 66.8393 57.4003 66.5857 57.3552 66.3434C57.0602 63.9287 56.2686 61.6013 55.0302 59.5075C53.7918 57.4137 52.1333 55.5989 50.1593 54.1773C49.7926 53.9081 49.3977 53.6795 48.9816 53.4955C48.6833 53.3582 48.3575 53.2907 48.0292 53.2983C47.912 53.3139 47.8 53.3567 47.7022 53.4232C47.6044 53.4897 47.5234 53.5782 47.4657 53.6814C47.4287 53.917 47.4854 54.1577 47.6235 54.352C47.7249 54.5098 47.9503 54.5943 48.1194 54.707C51.3834 56.8959 53.7763 60.1602 54.8815 63.9316C55.1511 64.8007 55.3268 65.6961 55.4055 66.6026C55.6197 69.1384 54.6053 71.3023 53.1515 73.2914C51.5384 75.456 49.6083 77.3652 47.4263 78.9547C45.7468 80.2414 43.8328 81.1888 41.7912 81.744C41.3878 81.8365 40.995 81.9706 40.6191 82.1441C40.1514 82.3751 40.1289 82.9217 40.6191 83.0795C41.2295 83.3114 41.8858 83.3964 42.5351 83.3275C43.4312 83.1684 44.299 82.8779 45.1103 82.4653C49.5546 80.2536 53.2605 76.7983 55.7774 72.5194C56.7674 70.8568 57.32 68.9705 57.3834 67.0365H57.4003ZM91.0754 69.1102C90.8951 68.5016 90.5401 68.4791 90.2301 68.6087C89.6877 68.8045 89.1755 69.0758 88.7087 69.4145C86.2631 71.3586 85.384 74.0071 85.6038 77.0106C85.7545 79.1762 86.5641 81.2439 87.9239 82.9361C89.2837 84.6283 91.1287 85.8641 93.2111 86.4775C94.0529 86.6592 94.9152 86.7274 95.775 86.6803C96.1051 86.6608 96.424 86.5538 96.6992 86.3704C96.8113 86.3142 96.9046 86.2263 96.9674 86.1177C97.0302 86.0091 97.0598 85.8845 97.0526 85.7593C97.0454 85.634 97.0017 85.5136 96.9269 85.413C96.8521 85.3123 96.7494 85.2357 96.6316 85.1927C96.286 85.0594 95.9199 84.987 95.5496 84.9785C94.2243 84.8797 92.9365 84.4929 91.7761 83.8451C90.6157 83.1973 89.6106 82.304 88.831 81.2277C88.0514 80.1514 87.5161 78.918 87.2623 77.6134C87.0086 76.3089 87.0426 74.9647 87.3619 73.6746C87.5578 72.6695 87.9972 71.7278 88.6417 70.932C89.2862 70.1362 90.116 69.5107 91.0585 69.1102H91.0754ZM42.3322 29.755C42.1164 30.0842 41.968 30.4529 41.8955 30.8398C41.8229 31.2266 41.8277 31.624 41.9096 32.009C41.9107 32.1245 41.9432 32.2375 42.0037 32.3359C42.0641 32.4343 42.1502 32.5144 42.2526 32.5677C42.3551 32.621 42.4701 32.6453 42.5854 32.6383C42.7006 32.6312 42.8118 32.5929 42.907 32.5275C43.188 32.2871 43.414 31.9891 43.5696 31.6537C43.7252 31.3182 43.8067 30.9531 43.8086 30.5834C43.6508 29.7268 42.9521 29.8564 42.3322 29.755ZM108.679 56.8033C108.677 56.4791 108.655 56.1554 108.612 55.834C108.499 55.3382 108.212 55.0057 107.648 55.0846C107.544 55.0951 107.444 55.1261 107.352 55.1758C107.26 55.2256 107.179 55.293 107.114 55.3742C107.048 55.4555 106.999 55.5489 106.97 55.6491C106.941 55.7493 106.932 55.8543 106.944 55.958C106.948 56.3709 107.012 56.781 107.135 57.1752C107.209 57.4175 107.423 57.7387 107.626 57.7781C107.763 57.7812 107.9 57.7547 108.026 57.7002C108.153 57.6458 108.266 57.5647 108.358 57.4626C108.509 57.2567 108.618 57.0231 108.679 56.7751V56.8033ZM34.77 28.3012C34.7766 28.2036 34.7766 28.1057 34.77 28.0081C34.6854 27.5799 34.5164 27.1347 34.0374 27.1742C33.7444 27.1742 33.4739 27.5123 33.2034 27.7377C33.1045 27.8679 33.0475 28.0251 33.04 28.1885C32.8709 29.0732 33.2372 29.8395 33.8289 29.879C34.4206 29.9184 34.753 29.2366 34.77 28.3012ZM114.117 56.3299C114.117 55.7664 114.038 55.3213 113.452 55.2818C112.866 55.2424 112.708 55.6537 112.663 56.1552C112.596 56.9385 112.799 57.4626 113.227 57.4344C113.53 57.3819 113.801 57.2169 113.988 56.9723C114.145 56.8145 114.095 56.5046 114.117 56.3299Z" fill="white"/>
<path d="M150.367 17.9385C151.696 17.1152 153.247 16.7216 154.808 16.8115C158.358 17.0651 160.911 18.9303 162.663 21.883C164.416 24.8358 164.833 28.2338 164.28 31.6599C163.61 35.8918 161.756 39.4419 158.262 41.9607C157.381 42.5253 156.465 43.0317 155.518 43.4766C155.27 43.6118 155.011 43.7245 154.616 43.9161C155.907 44.3162 157.05 44.6148 158.149 45.0431C158.956 45.3432 159.732 45.7206 160.465 46.1701C164.607 48.6721 164.9 53.7943 162.945 56.8767C161.068 59.8464 158.239 61.1481 154.836 61.3848C153.336 61.4634 151.834 61.2725 150.401 60.8213C150.195 60.7425 149.971 60.7235 149.755 60.7664C149.539 60.8092 149.339 60.9122 149.178 61.0636C147.877 62.1399 145.2 62.2864 143.752 61.4242C143.416 61.2184 143.124 60.9482 142.893 60.629C142.661 60.3099 142.496 59.9481 142.405 59.5646C141.612 56.6373 141.034 53.6559 140.675 50.6444C140.076 45.8111 139.82 40.9415 139.909 36.0721C139.976 30.5329 140.275 24.9992 140.472 19.46C140.471 18.911 140.631 18.3738 140.931 17.9143C141.232 17.4548 141.66 17.0931 142.163 16.8735C143.264 16.3429 144.472 16.0707 145.695 16.0775C146.917 16.0844 148.122 16.3701 149.218 16.9129C149.647 17.1992 150.034 17.5444 150.367 17.9385ZM149.421 42.4003C149.792 42.5207 150.187 42.5513 150.573 42.4896C150.959 42.4279 151.325 42.2756 151.641 42.0453C152.871 41.2454 153.933 40.2137 154.768 39.008C156.816 36.0741 158.017 32.6331 158.239 29.0621C158.491 26.9693 158.25 24.8466 157.535 22.8635C156.448 20.1644 154.413 19.2289 151.675 20.1531C150.283 20.6264 149.984 21.0322 149.871 22.4973C149.477 28.5549 149.381 34.6183 149.421 40.6872C149.426 41.2507 149.421 41.803 149.421 42.4003ZM149.229 51.715C149.376 53.6422 149.539 55.1693 149.59 56.6964C149.578 57.131 149.714 57.5568 149.974 57.9047C150.235 58.2525 150.606 58.5019 151.027 58.6123C152.374 59.0966 153.835 59.1711 155.225 58.8265C155.772 58.6903 156.283 58.4369 156.723 58.0837C157.163 57.7305 157.521 57.286 157.772 56.7809C158.444 55.472 158.72 53.9955 158.566 52.5321C158.268 48.9088 155.411 46.1589 150.976 46.8689C149.764 47.0605 149.285 47.7254 149.235 48.9707C149.212 50.0132 149.229 51.0613 149.229 51.715Z" fill="white"/>
<path d="M186.094 31.299C186.094 28.2336 186.133 25.602 185.429 23.0437C185.253 22.3553 184.994 21.691 184.657 21.0658C183.53 19.0597 181.276 18.6878 179.501 20.1698C178.623 20.949 177.927 21.9107 177.461 22.9873C176.236 25.7271 175.44 28.6387 175.1 31.6202C174.404 36.624 174.33 41.6946 174.88 46.7165C175.097 49.6363 175.778 52.5029 176.897 55.2086C177.154 55.7899 177.468 56.3447 177.833 56.8653C179.343 59.0009 182.048 59.1193 183.766 57.1076C184.395 56.3552 184.811 55.4487 184.972 54.4816C185.068 53.9688 185.124 53.4448 185.214 52.932C185.502 51.3598 186.978 50.4526 188.714 50.7738C190.286 51.0724 191.058 52.1825 190.703 53.828C189.807 57.9697 187.226 60.59 183.163 61.5874C178.943 62.6525 175.319 61.486 172.321 58.3473C170.324 56.1975 168.842 53.621 167.988 50.8132C165.468 43.3797 165.433 35.3285 167.887 27.8729C168.81 24.8061 170.509 22.029 172.817 19.8092C174.319 18.3522 176.157 17.2884 178.168 16.7124C180.179 16.1363 182.302 16.0658 184.347 16.507C187.356 17.0705 189.537 18.8906 191.109 21.4997C192.441 23.8532 193.265 26.4602 193.526 29.1521C193.774 31.3117 193.791 33.4917 193.577 35.6549C193.477 36.6476 193.063 37.5827 192.397 38.3251C191.73 39.0676 190.845 39.579 189.869 39.7854C188.269 40.1122 186.888 39.4529 186.375 37.8977C186.104 36.9681 185.973 36.0033 185.986 35.0351C185.941 33.6263 186.06 32.2401 186.094 31.299Z" fill="white"/>
<path d="M204.368 76.1539C204.081 76.9485 203.805 77.7487 203.495 78.5432C202.368 81.4396 201.308 84.3586 200.114 87.2268C199.625 88.3202 199.022 89.359 198.316 90.3261C197.888 90.9407 197.363 91.4813 196.761 91.9265C196.536 92.1318 196.27 92.2862 195.98 92.3789C195.691 92.4716 195.384 92.5004 195.082 92.4635C194.78 92.4265 194.49 92.3247 194.231 92.1648C193.972 92.005 193.751 91.7911 193.583 91.5376C192.997 90.7645 192.526 89.9103 192.185 89.0019C191.255 86.3477 190.687 83.5805 190.495 80.7747C189.997 76.6788 189.882 72.5455 190.151 68.4283C190.179 67.9809 190.241 67.5363 190.337 67.0984C190.686 65.6164 191.746 64.6528 193.025 64.6246C194.304 64.5965 195.392 65.5431 195.718 67.059C195.966 68.195 196.13 69.3476 196.209 70.5076C196.552 75.4045 196.851 80.3014 197.172 85.1982C197.183 85.5134 197.289 85.8179 197.477 86.0716C197.612 85.7448 197.753 85.418 197.882 85.0911C199.736 80.4253 201.579 75.7595 203.444 71.1049C203.85 70.0963 204.351 69.127 204.825 68.1522C205.004 67.7811 205.214 67.4249 205.45 67.0872C206.16 66.0672 207.073 65.3966 208.386 65.6671C208.999 65.7831 209.563 66.0812 210.004 66.5224C210.446 66.9637 210.744 67.5277 210.86 68.1409C211.497 71.1495 211.846 74.2119 211.902 77.2866C212.101 81.706 211.901 86.1342 211.305 90.5177C211.079 92.0045 210.771 93.4776 210.381 94.93C210.026 96.288 209.186 96.998 208.177 96.9811C207.169 96.9642 206.346 96.2824 206.07 94.9581C205.669 93.1009 205.398 91.218 205.259 89.3231C204.999 85.3785 204.881 81.3889 204.695 77.4162C204.695 77.0217 204.633 76.6273 204.599 76.2272L204.368 76.1539Z" fill="white"/>
<path d="M162.646 65.9601C166.371 64.3598 169.972 65.6558 171.871 69.313C174.609 74.5761 172.327 82.5103 166.484 84.8432C166.315 84.9108 166.157 85.0066 165.841 85.1587L166.743 85.4856C167.672 85.769 168.583 86.1097 169.47 86.5055C170.344 86.9259 171.099 87.5585 171.666 88.3457C172.232 89.1329 172.592 90.0495 172.714 91.0118C172.835 91.9741 172.713 92.9513 172.359 93.8543C172.005 94.7573 171.43 95.5572 170.687 96.1809C168.828 97.8376 166.602 98.2828 164.185 97.9954C163.887 97.9712 163.593 97.9184 163.305 97.8376C162.98 97.7151 162.629 97.6732 162.284 97.7154C161.939 97.7576 161.609 97.8826 161.322 98.0799C160.83 98.3585 160.28 98.5206 159.716 98.5539C159.151 98.5871 158.586 98.4905 158.065 98.2715C157.697 98.1216 157.375 97.8795 157.128 97.5686C156.881 97.2577 156.719 96.8884 156.656 96.4965C155.997 93.8831 155.539 91.2231 155.287 88.5398C154.594 81.5016 154.87 74.4521 155.287 67.4309C155.28 66.9212 155.435 66.4225 155.728 66.0056C156.022 65.5888 156.439 65.2751 156.921 65.1092C158.375 64.5561 159.985 64.5702 161.429 65.1487C161.865 65.3711 162.273 65.6434 162.646 65.9601ZM162.015 84.3529C162.546 84.1906 163.064 83.9891 163.565 83.75C164.616 83.0891 165.496 82.1894 166.134 81.124C167.9 78.3916 168.694 75.1441 168.388 71.9051C168.305 71.1314 168.115 70.3729 167.825 69.6511C167.064 67.6732 165.458 67.0139 163.463 67.7521C163.1 67.8468 162.781 68.0628 162.557 68.3641C162.334 68.6654 162.22 69.034 162.235 69.4088C162.139 73.6407 161.998 77.8613 161.891 82.0989C161.88 82.7357 161.964 83.4006 162.015 84.3529ZM161.784 90.6191C161.874 91.887 161.97 93.1605 162.06 94.4284C162.06 94.5017 162.06 94.5805 162.06 94.6538C162.047 94.9588 162.143 95.2585 162.331 95.4991C162.519 95.7396 162.787 95.9055 163.086 95.9668C163.806 96.1611 164.549 96.2615 165.295 96.2654C165.996 96.2864 166.684 96.0655 167.242 95.6397C167.8 95.2139 168.195 94.6092 168.36 93.9269C168.687 92.9223 168.743 91.8496 168.524 90.8163C167.898 87.9988 165.419 86.9789 163.176 87.3282C162.207 87.4747 161.835 87.9481 161.795 88.9342C161.767 89.4921 161.784 90.0556 161.784 90.6191Z" fill="white"/>
<path d="M147.234 79.8731C147.077 78.1206 146.986 76.3625 146.733 74.6269C146.59 73.8226 146.285 73.0558 145.837 72.3729C145.677 72.1054 145.462 71.8748 145.207 71.6962C144.952 71.5176 144.662 71.395 144.356 71.3364C144.05 71.2779 143.735 71.2847 143.432 71.3565C143.129 71.4283 142.844 71.5634 142.597 71.753C141.767 72.3449 141.123 73.1596 140.737 74.1028C139.921 75.8758 139.38 77.7626 139.131 79.6984C138.415 84.2215 138.415 88.8291 139.131 93.3522C139.364 94.6401 139.69 95.9094 140.106 97.1502C140.332 97.8242 140.661 98.4591 141.081 99.0323C141.302 99.3711 141.598 99.6542 141.946 99.8595C142.294 100.065 142.686 100.187 143.089 100.216C143.492 100.244 143.897 100.18 144.271 100.026C144.645 99.8727 144.978 99.6348 145.245 99.331C145.822 98.7325 146.194 97.9673 146.31 97.1446C146.367 96.8121 146.372 96.4683 146.445 96.1415C146.529 95.7849 146.699 95.4547 146.942 95.1803C147.184 94.906 147.491 94.6963 147.835 94.57C148.178 94.4437 148.548 94.4048 148.911 94.4568C149.273 94.5088 149.617 94.6501 149.911 94.868C150.211 95.1007 150.43 95.4219 150.537 95.7859C150.644 96.15 150.634 96.5386 150.508 96.8966C150.255 98.1899 149.646 99.387 148.751 100.354C147.855 101.32 146.707 102.018 145.437 102.368C142.09 103.388 139.238 102.509 136.866 99.9677C135.337 98.2566 134.226 96.2138 133.62 94.0002C131.884 88.4815 131.991 82.5477 133.924 77.095C134.521 75.3154 135.481 73.6787 136.742 72.2883C139.266 69.5892 142.377 68.5354 146 69.2849C148.254 69.7413 149.798 71.1444 150.914 73.0772C151.84 74.6716 152.398 76.4523 152.548 78.2897C152.673 80.0056 152.688 81.7278 152.593 83.4457C152.534 84.2005 152.213 84.9107 151.685 85.4532C151.157 85.9957 150.455 86.3361 149.703 86.4154C149.18 86.5236 148.635 86.4265 148.182 86.1443C147.729 85.8621 147.402 85.4164 147.268 84.8996C147.113 84.401 147.027 83.8833 147.015 83.3612C146.981 82.206 147.015 81.0452 147.015 79.8844L147.234 79.8731Z" fill="white"/>
<path d="M210.989 53.0502C211.164 53.6757 210.786 54.0026 210.352 54.2336C209.695 54.5886 209.011 54.892 208.307 55.1409C206.638 55.7159 204.883 56.0036 203.117 55.9917C200.609 55.9523 199.336 55.0507 198.479 52.684C197.766 50.5501 197.323 48.3351 197.161 46.091C196.583 40.1926 196.64 34.2493 197.33 28.3631C197.426 27.5854 197.589 26.8134 197.724 26.0358C197.856 25.2752 198.168 24.5574 198.635 23.9426C199.102 23.3278 199.709 22.834 200.407 22.5026C201.669 21.8361 203.049 21.4226 204.469 21.2855C206.815 20.9411 209.208 21.1338 211.468 21.849C212.034 22.0406 212.558 22.339 213.012 22.728C213.142 22.8732 213.241 23.0439 213.301 23.2292C213.361 23.4146 213.382 23.6105 213.362 23.8043C213.294 24.3002 212.798 24.3115 212.364 24.3058C210.758 24.3058 209.147 24.2551 207.535 24.3058C206.899 24.3324 206.266 24.4211 205.647 24.5707C204.52 24.8074 204.21 25.1342 204.114 26.3176C203.945 28.2617 203.754 30.2057 203.697 32.1498C203.613 34.9674 203.636 37.7849 203.619 40.6024C203.619 40.8278 203.619 41.0532 203.619 41.273C203.709 42.5352 203.934 42.7437 205.23 42.6874C206.092 42.6479 206.949 42.569 207.811 42.5352C208.145 42.504 208.482 42.5463 208.797 42.6592C209.068 42.7832 209.406 43.0762 209.434 43.3241C209.426 43.4821 209.378 43.6356 209.296 43.7704C209.213 43.9053 209.098 44.0173 208.961 44.0961C208.42 44.3232 207.852 44.4749 207.27 44.5469C206.459 44.6653 205.63 44.6709 204.808 44.7667C203.985 44.8625 203.759 45.0597 203.681 45.8937C203.624 46.8659 203.624 47.8405 203.681 48.8127C203.743 49.9397 203.861 51.0667 204.024 52.1937C204.21 53.4898 204.886 54.0477 206.194 53.8842C207.152 53.7715 208.087 53.4616 209.04 53.2531C209.671 53.0841 210.296 52.7009 210.989 53.0502Z" fill="white"/>
<path d="M189.007 87.0412C188.906 90.518 188.443 93.4652 187.035 96.1869C186.37 97.6264 185.291 98.8349 183.935 99.6581C181.377 101.084 178.734 100.887 176.903 98.0746C176.116 96.8751 175.565 95.5363 175.28 94.1301C175.105 93.3018 175.314 92.3945 174.762 91.6451C174.339 87.5653 174.452 83.5418 176.339 79.8114C176.815 78.8788 177.439 78.0299 178.188 77.2982C178.749 76.7407 179.424 76.3124 180.168 76.0432C180.911 75.774 181.705 75.6704 182.493 75.7396C183.28 75.8088 184.044 76.0492 184.729 76.444C185.414 76.8387 186.005 77.3784 186.46 78.0251C187.683 79.786 188.457 81.8192 188.714 83.9476C188.9 85.114 188.967 86.3199 189.007 87.0412ZM183.248 87.4582C183.342 85.6257 183.142 83.7899 182.656 82.0204C182.467 81.4182 182.188 80.8482 181.828 80.3299C181.174 79.4395 180.267 79.3944 179.574 80.2397C179.129 80.7883 178.775 81.4047 178.526 82.0655C177.675 84.4306 177.315 86.9441 177.466 89.453C177.54 90.8663 177.744 92.2697 178.075 93.6455C178.273 94.3641 178.64 95.0249 179.146 95.5727C179.279 95.7588 179.457 95.908 179.664 96.0061C179.871 96.1042 180.099 96.148 180.327 96.1333C180.556 96.1187 180.777 96.046 180.969 95.9223C181.162 95.7986 181.32 95.6278 181.428 95.4262C181.901 94.7117 182.265 93.9313 182.51 93.1102C183.036 91.2811 183.284 89.3836 183.248 87.4807V87.4582Z" fill="white"/>
<path d="M216.681 83.9024C216.822 80.2622 216.9 77.0051 217.616 73.8044C217.855 72.7876 218.156 71.7864 218.518 70.8066C218.74 70.1409 219.177 69.5681 219.761 69.1783C220.344 68.7886 221.041 68.6041 221.741 68.654C222.476 68.6584 223.207 68.7782 223.905 69.009C224.056 69.0374 224.197 69.1021 224.317 69.1974C224.438 69.2927 224.533 69.4158 224.595 69.556C224.657 69.6963 224.684 69.8496 224.674 70.0026C224.664 70.1557 224.616 70.3039 224.536 70.4347C223.2 73.9622 222.676 77.6757 222.096 81.3667C221.583 84.5786 221.2 87.8132 220.772 91.0364C220.707 91.5201 220.679 92.008 220.687 92.4959C220.713 92.7198 220.653 92.9453 220.517 93.1257C220.382 93.3061 220.183 93.4276 219.96 93.4651C219.525 93.5553 219.081 93.595 218.636 93.5835C218.37 93.6071 218.106 93.5251 217.9 93.3553C217.695 93.1855 217.564 92.9415 217.537 92.6762C217.346 91.4985 217.086 90.3208 216.974 89.1318C216.816 87.2609 216.76 85.3901 216.681 83.9024Z" fill="white"/>
<path d="M221.865 96.9867C221.865 98.2264 220.174 99.5056 218.985 99.1619C218.785 99.081 218.603 98.9596 218.451 98.8053C218.3 98.651 218.182 98.467 218.105 98.265C218.027 98.0629 217.993 97.8471 218.003 97.6311C218.013 97.415 218.067 97.2033 218.163 97.0093C218.31 96.6416 218.538 96.3121 218.831 96.0456C219.124 95.7791 219.473 95.5826 219.853 95.4709C220.088 95.4025 220.335 95.3899 220.576 95.4339C220.817 95.478 221.044 95.5776 221.239 95.7248C221.434 95.8719 221.592 96.0626 221.701 96.2817C221.81 96.5008 221.866 96.7422 221.865 96.9867Z" fill="white"/>
<path d="M227.41 108.956C227.274 108.06 226.919 107.212 226.378 106.486C225.836 105.759 225.124 105.178 224.305 104.791C222.986 104.147 221.55 103.776 220.084 103.698C218.14 103.591 216.196 103.467 214.252 103.439C211.434 103.388 208.617 103.4 205.828 103.439C204.368 103.439 202.909 103.546 201.449 103.574C199.015 103.614 196.558 103.433 194.124 103.687C187.896 104.294 181.637 104.533 175.381 104.403C174.142 104.403 172.908 104.403 171.668 104.403V104.436C167.436 104.56 163.215 104.758 158.972 104.786C154.775 104.751 150.584 105.147 146.468 105.969C143.854 106.47 141.304 107.262 138.866 108.33C137.574 108.865 136.465 109.765 135.677 110.92C134.888 112.075 134.453 113.435 134.426 114.833C134.313 116.924 134.82 118.93 135.249 120.936C135.504 122.191 136.035 123.373 136.803 124.398C137.571 125.424 138.557 126.266 139.689 126.864C141.124 127.679 142.666 128.29 144.27 128.678C148.194 129.536 152.225 129.804 156.228 129.473C160.043 129.231 163.846 128.853 167.661 128.605C170.84 128.397 174.023 128.295 177.202 128.149C183.302 127.863 189.405 127.578 195.51 127.292C201.759 126.993 208.008 126.684 214.179 125.528C216.363 125.189 218.513 124.658 220.603 123.939C222.101 123.435 223.457 122.581 224.56 121.448C225.662 120.316 226.479 118.936 226.942 117.425C227.786 114.682 227.947 111.775 227.41 108.956Z" fill="white"/>
<path d="M150.542 114.038L150.412 110.562L148.463 110.635L148.592 114.112L147.426 114.157L147.268 109.581L151.556 109.418L151.731 113.993L150.542 114.038Z" fill="#2B2B2B"/>
<path d="M153.737 113.351C153.28 112.902 153.011 112.296 152.987 111.655C152.963 111.015 153.185 110.39 153.608 109.908C154.092 109.453 154.724 109.188 155.388 109.164C156.052 109.139 156.703 109.355 157.22 109.773C157.677 110.221 157.945 110.828 157.969 111.468C157.993 112.109 157.772 112.734 157.349 113.216C156.865 113.671 156.233 113.935 155.569 113.96C154.904 113.985 154.254 113.769 153.737 113.351ZM154.239 111.604C154.238 111.777 154.271 111.948 154.337 112.108C154.403 112.267 154.499 112.412 154.622 112.534C154.868 112.761 155.194 112.883 155.529 112.872C155.864 112.862 156.182 112.72 156.414 112.478C156.632 112.207 156.745 111.866 156.73 111.519C156.716 111.171 156.575 110.841 156.335 110.59C156.215 110.475 156.072 110.386 155.916 110.329C155.76 110.272 155.594 110.248 155.428 110.257C155.263 110.26 155.101 110.298 154.952 110.366C154.802 110.435 154.669 110.534 154.56 110.657C154.444 110.785 154.355 110.934 154.3 111.097C154.245 111.26 154.224 111.433 154.239 111.604Z" fill="#2B2B2B"/>
<path d="M159.417 113.7L159.243 109.13L160.302 109.091L161.925 110.939L163.328 108.973L164.354 108.939L164.528 113.509L163.362 113.554L163.255 110.736L161.964 112.494H161.919L160.465 110.843L160.567 113.633L159.417 113.7Z" fill="#2B2B2B"/>
<path d="M166.557 112.867C166.097 112.419 165.827 111.812 165.803 111.171C165.779 110.53 166.002 109.904 166.427 109.424C166.91 108.969 167.542 108.705 168.205 108.68C168.868 108.655 169.518 108.871 170.034 109.288C170.491 109.737 170.759 110.344 170.783 110.984C170.808 111.624 170.586 112.249 170.163 112.731C169.68 113.186 169.048 113.45 168.385 113.475C167.722 113.5 167.073 113.284 166.557 112.867ZM167.053 111.125C167.056 111.472 167.196 111.804 167.442 112.049C167.557 112.169 167.698 112.261 167.854 112.32C168.01 112.378 168.177 112.401 168.343 112.388C168.51 112.387 168.675 112.352 168.827 112.284C168.98 112.216 169.116 112.117 169.228 111.993C169.343 111.862 169.43 111.709 169.484 111.544C169.538 111.378 169.559 111.203 169.543 111.029C169.543 110.858 169.509 110.689 169.442 110.531C169.375 110.373 169.278 110.23 169.155 110.111C168.909 109.886 168.584 109.767 168.252 109.779C167.919 109.79 167.604 109.932 167.374 110.173C167.26 110.302 167.172 110.453 167.117 110.617C167.062 110.78 167.04 110.953 167.053 111.125Z" fill="#2B2B2B"/>
<path d="M172.231 113.222L172.062 108.646L173.229 108.601L173.358 112.089L174.649 112.038L174.519 108.556L175.686 108.511L175.821 111.993L177.123 111.948L176.987 108.46L178.159 108.415L178.289 111.903L179.05 111.875L179.134 114.027L178.035 114.072L177.996 113.002L172.231 113.222Z" fill="#2B2B2B"/>
<path d="M180.211 112.917L180.036 108.347L181.208 108.302L181.253 109.553H181.884C182.435 109.486 182.99 109.625 183.445 109.942C183.605 110.083 183.733 110.257 183.821 110.451C183.909 110.645 183.956 110.856 183.958 111.069C183.971 111.3 183.937 111.531 183.858 111.748C183.778 111.965 183.655 112.163 183.496 112.331C183.062 112.715 182.497 112.916 181.918 112.895L180.211 112.917ZM181.817 110.466H181.287L181.338 111.841H181.856C182.448 111.841 182.735 111.576 182.718 111.125C182.701 110.674 182.397 110.443 181.817 110.466Z" fill="#2B2B2B"/>
<path d="M187.277 113.723L187.198 111.565H187.762C188.171 110.829 188.366 109.994 188.325 109.153L188.353 108.054L191.734 107.925L191.864 111.413L192.63 111.384L192.709 113.537L191.582 113.582L191.543 112.511L188.302 112.635L188.342 113.7L187.277 113.723ZM189.469 109.553C189.481 110.231 189.318 110.901 188.996 111.497L190.686 111.435L190.596 109.046L189.469 109.085V109.553Z" fill="#2B2B2B"/>
<path d="M197.336 110.99L197.702 111.801C197.223 112.215 196.61 112.442 195.978 112.438C195.651 112.466 195.323 112.427 195.012 112.324C194.701 112.222 194.414 112.057 194.169 111.841C193.936 111.625 193.749 111.363 193.621 111.073C193.494 110.782 193.427 110.468 193.425 110.15C193.405 109.836 193.448 109.521 193.55 109.223C193.653 108.925 193.813 108.65 194.022 108.415C194.243 108.175 194.511 107.984 194.81 107.855C195.109 107.726 195.432 107.661 195.758 107.665C196.04 107.647 196.322 107.685 196.589 107.777C196.856 107.869 197.102 108.013 197.313 108.201C197.528 108.388 197.701 108.619 197.82 108.878C197.938 109.138 198 109.42 198.001 109.705C198.015 109.917 197.999 110.129 197.955 110.336L194.648 110.46C194.67 110.615 194.723 110.764 194.806 110.897C194.888 111.03 194.998 111.144 195.127 111.232C195.403 111.416 195.731 111.503 196.062 111.48C196.531 111.472 196.982 111.298 197.336 110.99ZM195.73 108.618C195.439 108.608 195.156 108.711 194.94 108.905C194.723 109.1 194.59 109.37 194.569 109.66L196.823 109.576C196.826 109.444 196.801 109.312 196.75 109.191C196.698 109.069 196.621 108.96 196.524 108.871C196.416 108.777 196.29 108.706 196.153 108.662C196.016 108.619 195.872 108.604 195.73 108.618Z" fill="#2B2B2B"/>
<path d="M198.733 108.809L198.688 107.643L202.852 107.485L202.897 108.651L201.404 108.708L201.534 112.117L200.362 112.156L200.238 108.775L198.733 108.809Z" fill="#2B2B2B"/>
<path d="M206.098 107.361L207.591 107.305L207.76 111.88L206.594 111.925L206.543 110.55L205.889 110.579L204.999 111.982L203.658 112.032L204.813 110.342C204.565 110.258 204.346 110.106 204.182 109.902C203.987 109.662 203.882 109.361 203.883 109.052C203.867 108.826 203.905 108.601 203.993 108.393C204.081 108.185 204.217 108.002 204.391 107.857C204.887 107.502 205.489 107.327 206.098 107.361ZM205.134 109.108C205.137 109.196 205.161 109.282 205.203 109.359C205.245 109.437 205.304 109.503 205.377 109.553C205.529 109.663 205.713 109.719 205.901 109.711H206.509L206.459 108.392H205.94C205.716 108.387 205.498 108.468 205.332 108.618C205.267 108.682 205.216 108.758 205.182 108.842C205.148 108.927 205.132 109.017 205.134 109.108Z" fill="#2B2B2B"/>
<path d="M209.412 111.835L209.237 107.26L210.296 107.22L211.919 109.074L213.322 107.108L214.348 107.068L214.522 111.644L213.35 111.689L213.249 108.871L211.959 110.629H211.93L210.471 108.973L210.578 111.79L209.412 111.835Z" fill="#2B2B2B"/>
<path d="M159.665 115.414L160.308 116.349C160.164 116.55 159.969 116.709 159.744 116.811C159.484 116.917 159.217 117.004 158.944 117.07C158.67 117.132 158.405 117.229 158.155 117.358C157.858 117.539 157.616 117.797 157.454 118.104C157.293 118.412 157.217 118.758 157.237 119.105C157.382 118.835 157.603 118.613 157.873 118.468C158.156 118.296 158.478 118.201 158.809 118.192C159.09 118.172 159.373 118.212 159.638 118.309C159.903 118.406 160.145 118.558 160.347 118.755C160.673 119.091 160.894 119.515 160.981 119.975C161.069 120.435 161.02 120.911 160.84 121.343C160.66 121.776 160.357 122.146 159.969 122.408C159.581 122.67 159.125 122.813 158.657 122.818C158.32 122.84 157.983 122.786 157.669 122.66C157.356 122.534 157.076 122.34 156.848 122.091C156.353 121.508 156.086 120.765 156.098 120.001C156.025 118.04 156.555 116.794 157.687 116.253C157.951 116.133 158.227 116.04 158.51 115.977C158.751 115.922 158.988 115.852 159.22 115.769C159.396 115.69 159.55 115.568 159.665 115.414ZM157.332 120.198C157.333 120.604 157.465 121 157.71 121.325C157.81 121.461 157.943 121.57 158.097 121.641C158.251 121.712 158.42 121.743 158.589 121.73C158.749 121.733 158.908 121.699 159.054 121.633C159.2 121.567 159.33 121.469 159.434 121.347C159.638 121.101 159.741 120.787 159.722 120.468C159.722 120.152 159.605 119.847 159.395 119.612C159.285 119.501 159.153 119.416 159.007 119.362C158.861 119.309 158.704 119.288 158.549 119.302C158.263 119.302 157.985 119.4 157.761 119.578C157.556 119.733 157.407 119.95 157.338 120.198H157.332Z" fill="#2B2B2B"/>
<path d="M165.96 121.133L166.326 121.945C165.847 122.358 165.234 122.584 164.602 122.581C164.275 122.607 163.947 122.568 163.637 122.466C163.326 122.363 163.039 122.199 162.793 121.984C162.56 121.768 162.373 121.507 162.245 121.216C162.118 120.925 162.051 120.611 162.049 120.293C162.029 119.979 162.072 119.664 162.174 119.366C162.277 119.068 162.437 118.793 162.646 118.558C162.867 118.318 163.135 118.127 163.434 117.998C163.733 117.869 164.056 117.804 164.382 117.808C164.664 117.789 164.947 117.827 165.214 117.919C165.481 118.01 165.727 118.155 165.937 118.344C166.152 118.531 166.325 118.762 166.444 119.022C166.562 119.281 166.624 119.563 166.625 119.848C166.639 120.06 166.623 120.272 166.579 120.479L163.272 120.603C163.294 120.758 163.347 120.907 163.43 121.04C163.512 121.173 163.622 121.287 163.751 121.375C164.027 121.559 164.355 121.646 164.686 121.623C165.155 121.615 165.606 121.441 165.96 121.133ZM164.365 118.761C164.074 118.751 163.791 118.854 163.575 119.049C163.359 119.243 163.226 119.513 163.204 119.803L165.458 119.719C165.461 119.587 165.437 119.456 165.385 119.334C165.334 119.213 165.257 119.104 165.159 119.014C165.051 118.92 164.925 118.849 164.788 118.806C164.652 118.762 164.508 118.747 164.365 118.761Z" fill="#2B2B2B"/>
<path d="M169.634 122.39C169.234 122.405 168.834 122.346 168.456 122.215C168.133 122.123 167.841 121.946 167.611 121.702L168.174 120.947C168.342 121.117 168.546 121.246 168.771 121.325C168.997 121.414 169.238 121.46 169.481 121.46C169.723 121.464 169.961 121.402 170.169 121.28C170.236 121.239 170.292 121.183 170.332 121.116C170.372 121.049 170.395 120.972 170.398 120.894C170.401 120.816 170.385 120.738 170.351 120.668C170.317 120.597 170.266 120.537 170.203 120.491C170.047 120.397 169.865 120.355 169.684 120.372L168.833 120.406L168.805 119.617L169.605 119.589C169.687 119.59 169.768 119.574 169.843 119.543C169.919 119.512 169.987 119.467 170.045 119.409C170.097 119.357 170.138 119.294 170.164 119.225C170.19 119.156 170.201 119.082 170.197 119.009C170.197 118.676 169.91 118.518 169.374 118.541C168.909 118.575 168.471 118.775 168.14 119.104L167.628 118.423C167.866 118.147 168.164 117.928 168.498 117.781C168.833 117.635 169.196 117.566 169.56 117.577C170.038 117.526 170.52 117.629 170.935 117.87C171.089 117.973 171.216 118.112 171.303 118.275C171.391 118.439 171.436 118.621 171.437 118.806C171.447 119.029 171.377 119.249 171.24 119.426C171.086 119.625 170.876 119.774 170.637 119.854C170.912 119.886 171.169 120.011 171.364 120.209C171.539 120.395 171.638 120.641 171.64 120.896C171.653 121.1 171.611 121.304 171.518 121.485C171.424 121.667 171.283 121.82 171.11 121.928C170.672 122.22 170.16 122.381 169.634 122.39Z" fill="#2B2B2B"/>
<path d="M179.061 120.384L179.625 121.218C179.436 121.487 179.18 121.701 178.881 121.838C178.552 121.986 178.198 122.068 177.838 122.08C177.51 122.108 177.179 122.07 176.866 121.968C176.552 121.867 176.262 121.703 176.012 121.488C175.778 121.274 175.59 121.012 175.462 120.721C175.334 120.43 175.268 120.116 175.269 119.798C175.248 119.483 175.29 119.167 175.394 118.869C175.497 118.57 175.66 118.296 175.872 118.062C176.085 117.825 176.346 117.636 176.637 117.506C176.928 117.376 177.243 117.308 177.562 117.307C177.894 117.273 178.229 117.305 178.549 117.402C178.868 117.498 179.165 117.658 179.422 117.87L178.909 118.817C178.757 118.679 178.579 118.571 178.386 118.502C178.192 118.432 177.987 118.401 177.782 118.411C177.613 118.418 177.446 118.458 177.293 118.53C177.139 118.601 177.001 118.703 176.888 118.828C176.774 118.953 176.686 119.1 176.63 119.26C176.573 119.42 176.549 119.589 176.559 119.758C176.559 119.936 176.597 120.111 176.671 120.273C176.744 120.434 176.853 120.578 176.987 120.694C177.248 120.923 177.588 121.04 177.934 121.02C178.156 121.001 178.372 120.934 178.567 120.824C178.761 120.715 178.93 120.564 179.061 120.384Z" fill="#2B2B2B"/>
<path d="M184.245 120.445L184.611 121.251C184.133 121.667 183.52 121.893 182.887 121.888C182.561 121.915 182.232 121.877 181.92 121.775C181.609 121.673 181.32 121.511 181.073 121.296C180.712 120.971 180.457 120.545 180.343 120.073C180.228 119.601 180.259 119.106 180.431 118.651C180.602 118.197 180.907 117.805 181.305 117.527C181.703 117.249 182.176 117.098 182.662 117.093C183.23 117.059 183.789 117.252 184.217 117.628C184.435 117.819 184.61 118.055 184.73 118.319C184.849 118.583 184.911 118.87 184.91 119.161C184.919 119.372 184.902 119.584 184.859 119.792L181.557 119.916C181.579 120.071 181.633 120.219 181.715 120.352C181.798 120.485 181.907 120.599 182.036 120.688C182.313 120.87 182.642 120.955 182.972 120.93C183.44 120.922 183.89 120.751 184.245 120.445ZM182.65 118.073C182.361 118.063 182.078 118.166 181.862 118.359C181.646 118.552 181.513 118.821 181.49 119.11L183.744 119.025C183.744 118.895 183.718 118.765 183.667 118.645C183.616 118.525 183.54 118.416 183.445 118.327C183.337 118.232 183.211 118.161 183.074 118.117C182.937 118.073 182.793 118.058 182.65 118.073Z" fill="#2B2B2B"/>
<path d="M186.296 121.651L186.15 117.076L187.209 117.036L188.832 118.885L190.207 116.907H191.221L191.396 121.477L190.224 121.522L190.123 118.704L188.832 120.462L187.373 118.811L187.48 121.629L186.296 121.651Z" fill="#2B2B2B"/>
<path d="M193.053 121.415L192.878 116.845L194.05 116.8L194.095 118.051H194.726C195.276 117.977 195.834 118.114 196.287 118.434C196.447 118.576 196.575 118.749 196.663 118.943C196.751 119.137 196.798 119.348 196.8 119.561C196.814 119.792 196.779 120.023 196.7 120.24C196.62 120.457 196.497 120.656 196.338 120.823C195.906 121.21 195.34 121.412 194.76 121.387L193.053 121.415ZM194.659 118.964H194.129L194.186 120.333H194.704C195.267 120.333 195.577 120.068 195.56 119.617C195.544 119.167 195.245 118.919 194.659 118.941V118.964Z" fill="#2B2B2B"/>
<path d="M199.314 121.156L198.147 121.201L197.972 116.631L199.139 116.586L199.252 119.482L201.275 116.507L202.447 116.462L202.616 121.032L201.449 121.077L201.337 118.18L199.314 121.156Z" fill="#2B2B2B"/>
<path d="M204.475 118.501L204.301 113.847L205.54 113.796L205.715 118.451L204.475 118.501ZM204.379 120.192C204.374 120.095 204.39 119.999 204.425 119.908C204.46 119.818 204.513 119.736 204.582 119.668C204.653 119.588 204.74 119.524 204.837 119.479C204.934 119.435 205.039 119.411 205.146 119.409C205.245 119.403 205.345 119.42 205.437 119.457C205.529 119.494 205.613 119.55 205.681 119.623C205.821 119.758 205.904 119.941 205.912 120.136C205.92 120.341 205.852 120.541 205.721 120.699C205.66 120.78 205.582 120.845 205.492 120.891C205.402 120.937 205.303 120.962 205.202 120.964C205.093 120.972 204.983 120.956 204.88 120.918C204.777 120.881 204.683 120.821 204.605 120.744C204.464 120.599 204.384 120.405 204.379 120.203V120.192Z" fill="#2B2B2B"/>
</svg>
