<svg width="222" height="109" viewBox="0 0 222 109" fill="none" xmlns="http://www.w3.org/2000/svg">
<path d="M60.3367 0.329308C59.364 0.662247 58.9101 1.11625 58.9101 1.78213C58.9749 2.81121 62.736 10.3477 67.5995 18.9436C69.2207 21.8492 70.5825 24.4522 70.5825 24.6943C70.5825 25.0272 68.7668 25.3602 64.2275 25.8747C45.811 27.9934 38.1591 29.7792 29.7938 33.956C14.036 41.8255 3.33628 53.7507 0.48302 66.7353C-0.489684 71.0635 0.0939384 82.8676 1.45572 87.6498C3.72536 95.3377 6.05985 98.1525 13.1282 101.452C22.2067 105.689 30.6368 106.9 62.1524 108.443C75.8351 109.109 123.562 109.2 136.078 108.595C172.522 106.809 194.894 103.328 206.502 97.5774C213.635 94.0665 215.84 90.5252 219.341 77.2077C221.611 68.6118 222 65.7062 222 55.8694C222 47.5762 221.805 45.0943 220.833 42.2492C218.498 35.2575 215.126 30.5661 210.068 27.2065C203.908 23.1204 198.461 21.9703 177.839 20.2753C169.863 19.6094 165.518 19.4581 152.938 19.337C137.699 19.1857 131.668 19.3976 118.569 20.4872C116.235 20.6991 113.511 20.7596 112.474 20.6385C111.242 20.4872 104.822 17.7026 93.0195 12.1637C77.8454 5.05097 66.1081 0.177971 64.0978 0.177971C63.7736 0.177971 63.19 0.117439 62.6712 0.0266342C62.2173 -0.0641632 61.1797 0.0871735 60.3367 0.329308Z" fill="#FF2619"/>
</svg>
